<?xml version="1.0" encoding="UTF-8"?>
<svg width="116px" height="25px" viewBox="0 0 162 35" version="1.1" xmlns="http://www.w3.org/2000/svg" xmlns:xlink="http://www.w3.org/1999/xlink">
    <!-- Generator: Sketch 50.2 (55047) - http://www.bohemiancoding.com/sketch -->
    <title>logo</title>
    <desc>Created with Sketch.</desc>
    <defs></defs>
    <g id="login" stroke="none" stroke-width="1" fill="none" fill-rule="evenodd">
        <g id="login-main-copy" transform="translate(-291.000000, -129.000000)" fill="#424242">
            <g id="logo" transform="translate(291.000000, 129.000000)">
                <path fill="#ffe53b" d="M134.78454,7 L142.955718,7 C143.647177,7 143.999555,7.8322786 143.514204,8.32107714 L135.362971,16.50515 C134.870972,17.0005539 134.026595,16.6570739 134.026595,15.9635084 L134,7.77943551 C134,7.35008544 134.345729,7 134.78454,7 Z M161.227895,35 L153.044787,35 C152.352882,35 152.000277,34.1677214 152.485941,33.6789229 L160.635784,25.49485 C161.128101,24.9994461 161.972957,25.3429261 161.972957,26.0364916 L161.999635,34.2205645 C162.012941,34.6499146 161.660336,35 161.227895,35 Z M135.165247,28.2146109 L155.219761,8.16501247 C156.773424,6.61166251 159.287905,6.61166251 160.834753,8.16501247 C162.388416,9.71829431 162.388416,12.2320902 160.834753,13.7786275 L140.780239,33.8350386 C139.23339,35.3883205 136.712095,35.3883205 135.165247,33.8350386 C133.611584,32.2816887 133.611584,29.7678928 135.165247,28.2146109 Z" id="Combined-Shape"></path>
                <path d="M117.209302,15.4 C118.750637,15.4 120,16.5899106 120,18.0569015 L120,32.3430985 C120,33.8100894 118.750637,35 117.209302,35 C115.667968,35 114.418605,33.8100894 114.418605,32.3430985 L114.418605,18.0569015 C114.418605,16.5899106 115.667968,15.4 117.209302,15.4 Z M23.5350413,2.66068462 C23.6589673,12.6990571 23.7209302,17.7193352 23.7209302,17.721519 L23.7209302,23.2861087 C23.7209302,29.7449636 18.4004886,35 11.8608838,35 C5.32044162,35 0,29.7449636 0,23.2861087 L0,18.0364538 C0,16.5492875 1.23172326,15.3430122 2.75316526,15.3430122 C4.27376991,15.3430122 5.50633052,16.5492875 5.50633052,18.0364538 L5.50633052,23.2861087 C5.50633052,26.7747257 8.35662691,29.6139357 11.8608838,29.6139357 C15.363466,29.6139357 18.2145997,26.7747257 18.2145997,23.2861087 L18.2145997,17.8631929 L18.0287108,2.72537963 C18.0102894,1.23821334 19.2277779,0.0180163317 20.7827134,0 C22.288246,0 23.5174573,1.18416435 23.5350413,2.66068462 Z M78.9860571,15.117068 L90.7702288,15.117068 C92.2714904,15.117068 93.4883721,16.324653 93.4883721,17.8134339 C93.4883721,19.3013951 92.2714904,20.5089801 90.7702288,20.5089801 L78.9860571,20.5089801 L78.9860571,22.8183941 C78.9860571,29.5351245 73.4753687,35 66.7023309,35 C59.929293,35 54.4186047,29.5351245 54.4186047,22.8183941 L54.4186047,18.0180359 C54.4186047,16.5292549 55.6346597,15.3224898 57.136748,15.3224898 C58.6380096,15.3224898 59.8548913,16.5292549 59.8548913,18.0180359 L59.8548913,22.8183941 C59.8548913,26.5624815 62.9268562,29.6080879 66.7023309,29.6080879 C70.4778055,29.6080879 73.5497704,26.5624815 73.5497704,22.8183941 L73.5497704,13.8955461 C73.5497704,12.4067652 74.7666521,11.2 76.2679137,11.2 C77.7700021,11.2 78.9860571,12.4067652 78.9860571,13.8955461 L78.9860571,15.117068 Z M34.882537,15.4889873 L44.7269942,15.4889873 C46.2264459,15.4889873 47.4418605,16.7232463 47.4418605,18.2449126 C47.4418605,19.765741 46.2264459,21 44.7269942,21 L32.199047,21 C32.0132669,21 31.8307895,20.9807278 31.6549177,20.9446972 C31.6070278,20.9346421 31.5640919,20.913694 31.5170276,20.9011252 C31.3915229,20.8676083 31.2651924,20.8349294 31.1471188,20.7846541 C31.0893206,20.7603543 31.0381279,20.7234858 30.981981,20.6941585 C30.8820726,20.6430452 30.7796871,20.5952837 30.6872099,20.5324395 C30.6327144,20.495571 30.5864758,20.4469715 30.5352831,20.4067513 C30.4502371,20.3388796 30.362714,20.2743596 30.2859249,20.1981087 C30.2396863,20.1511851 30.2041817,20.0967201 30.1620715,20.0472827 C30.0910623,19.9643285 30.0159245,19.883888 29.9548235,19.7917165 C29.9176675,19.7364137 29.8920712,19.6744075 29.8590436,19.6165909 C29.8045481,19.5210678 29.7467499,19.4288963 29.703814,19.3266699 C29.6757406,19.2596361 29.6600525,19.1867369 29.6377589,19.1171894 C29.6039056,19.0166387 29.5659239,18.9186019 29.544456,18.8130237 C29.5279422,18.735097 29.5271165,18.6521427 29.5172082,18.5725401 C29.5064743,18.4745032 29.485832,18.3789801 29.4850064,18.2775916 L29.302529,2.78860426 C29.2843639,1.26693799 30.484916,0.018434283 32.018221,0 C33.5028103,0 34.7140964,1.21163514 34.7322616,2.72240843 L34.882537,15.4889873 Z M104.651163,15.4 C106.192497,15.4 107.44186,16.5899106 107.44186,18.0569015 L107.44186,32.3430985 C107.44186,33.8100894 106.192497,35 104.651163,35 C103.109829,35 101.860465,33.8100894 101.860465,32.3430985 L101.860465,18.0569015 C101.860465,16.5899106 103.109829,15.4 104.651163,15.4 Z M66.9767442,21 C66.2452021,21 65.5226914,20.6988391 65.0079025,20.178652 C64.4840822,19.6493388 64.1860465,18.9192517 64.1860465,18.1800385 C64.1860465,17.4408253 64.4840822,16.7107382 65.0079025,16.1905512 C66.0374802,15.1410509 67.9160081,15.1319248 68.9546173,16.1905512 C69.4694062,16.7107382 69.7674419,17.4408253 69.7674419,18.1800385 C69.7674419,18.9192517 69.4694062,19.6493388 68.9546173,20.178652 C68.430797,20.6988391 67.7173177,21 66.9767442,21 Z M117.208851,12.6 C116.477427,12.6 115.755936,12.3008538 115.240328,11.7841467 C114.725622,11.2583746 114.418605,10.5331716 114.418605,9.79890366 C114.418605,9.06463568 114.725622,8.33943275 115.240328,7.82272565 C115.890482,7.17004301 116.856684,6.8708968 117.759676,7.05219753 C117.941178,7.08845768 118.111843,7.1428479 118.283412,7.21536819 C118.44595,7.28788849 118.609392,7.36947382 118.762901,7.46918922 C118.916409,7.57796966 119.060888,7.69581514 119.186404,7.82272565 C119.702013,8.33943275 120,9.06463568 120,9.79890366 C120,10.5422367 119.702013,11.2583746 119.186404,11.7841467 C119.060888,11.9110572 118.916409,12.0289027 118.762901,12.1286181 C118.609392,12.2283335 118.44595,12.3189839 118.283412,12.3915042 C118.111843,12.4549594 117.932148,12.5093496 117.759676,12.5456098 C117.579078,12.5818699 117.389449,12.6 117.208851,12.6 Z M41.6436768,31.1307443 C41.7159396,31.3029126 41.7611038,31.4750809 41.7972352,31.6563107 C41.8333666,31.8375405 41.8604651,32.0187702 41.8604651,32.2 C41.8604651,32.3812298 41.8333666,32.571521 41.7972352,32.7527508 C41.7611038,32.9249191 41.7159396,33.1061489 41.6436768,33.2692557 C41.5714141,33.4414239 41.4901184,33.6045307 41.3916604,33.7585761 C41.2832663,33.9126214 41.1658393,34.0485437 41.0384762,34.184466 C40.9120163,34.3113269 40.7674908,34.4291262 40.6139324,34.5288026 C40.460374,34.628479 40.2986861,34.7190939 40.1351916,34.7915858 C39.9644708,34.8550162 39.7919435,34.9093851 39.6112865,34.9456311 C39.4306296,34.981877 39.250876,35 39.0693158,35 C38.8886589,35 38.6989691,34.981877 38.5183122,34.9456311 C38.3475914,34.9093851 38.1660312,34.8550162 38.0043433,34.7915858 C37.8318159,34.7190939 37.670128,34.628479 37.5165696,34.5288026 C37.3630112,34.4291262 37.2184857,34.3113269 37.0911226,34.184466 C36.9646628,34.0485437 36.8472358,33.9126214 36.7478745,33.7585761 C36.6494164,33.6045307 36.5581847,33.4414239 36.4859219,33.2692557 C36.4235953,33.1061489 36.3684949,32.9249191 36.3323636,32.7527508 C36.2962322,32.571521 36.2790698,32.3812298 36.2790698,32.2 C36.2790698,32.0187702 36.2962322,31.8375405 36.3323636,31.6563107 C36.3684949,31.4750809 36.4235953,31.3029126 36.4859219,31.1307443 C36.5581847,30.9676375 36.6494164,30.8045307 36.7478745,30.6504854 C36.8472358,30.4964401 36.9646628,30.3514563 37.0911226,30.2245955 C37.2184857,30.0977346 37.3630112,29.9799353 37.5165696,29.8711974 C37.670128,29.771521 37.8318159,29.6899676 37.9944072,29.6174757 C38.1660312,29.5449838 38.3475914,29.4906149 38.5183122,29.4543689 C38.879626,29.381877 39.250876,29.381877 39.6112865,29.4543689 C39.7919435,29.4906149 39.9644708,29.5449838 40.1351916,29.6174757 C40.2986861,29.6899676 40.460374,29.771521 40.6139324,29.8711974 C40.7674908,29.9799353 40.9120163,30.0977346 41.0384762,30.2245955 C41.1658393,30.3514563 41.2832663,30.4964401 41.3916604,30.6504854 C41.4901184,30.8045307 41.5714141,30.9676375 41.6436768,31.1307443 Z M85.7746093,25.2 L92.8300419,25.2 C93.9645919,25.2 94.8837209,26.1404933 94.8837209,27.3004078 C94.8837209,28.4603224 93.9645919,29.4 92.8300419,29.4 L85.7746093,29.4 C84.6400593,29.4 83.7209302,28.4603224 83.7209302,27.3004078 C83.7209302,26.1404933 84.6400593,25.2 85.7746093,25.2 Z M41.2021349,23.8 C42.3366849,23.8 43.255814,24.7404933 43.255814,25.9004078 C43.255814,27.0603224 42.3366849,28 41.2021349,28 L34.1467023,28 C33.0121523,28 32.0930233,27.0603224 32.0930233,25.9004078 C32.0930233,24.7404933 33.0121523,23.8 34.1467023,23.8 L41.2021349,23.8 Z" id="Combined-Shape"></path>
            </g>
        </g>
    </g>
</svg>
